<?xml version="1.0" standalone="no"?>
<!DOCTYPE svg PUBLIC "-//W3C//DTD SVG 20010904//EN"
 "http://www.w3.org/TR/2001/REC-SVG-20010904/DTD/svg10.dtd">
<svg version="1.0" xmlns="http://www.w3.org/2000/svg"
 width="300.000000pt" height="300.000000pt" viewBox="0 0 300.000000 300.000000"
 preserveAspectRatio="xMidYMid meet">

<g transform="translate(0.000000,300.000000) scale(0.100000,-0.100000)"
fill="#000000" stroke="none">
<path d="M487 2875 c-209 -42 -379 -200 -431 -402 -23 -88 -24 -1688 -1 -1773
25 -96 75 -180 150 -255 80 -80 139 -115 245 -144 73 -21 94 -21 1032 -21 836
0 965 2 1025 16 109 25 212 84 288 165 22 23 33 38 25 33 -8 -4 0 7 18 25 29
30 36 43 33 64 0 4 3 7 9 7 5 0 7 7 4 15 -4 9 1 18 10 21 9 4 16 14 15 23 -3
29 1 42 9 37 5 -3 8 8 7 24 -1 16 2 27 7 24 5 -4 7 11 4 33 -4 21 -3 30 1 21
11 -23 10 1605 -1 1662 -4 25 -24 79 -43 120 -47 97 -150 203 -243 249 -142
69 -74 65 -1135 67 -778 2 -973 0 -1028 -11z m960 -460 c123 -52 180 -177 141
-307 -16 -53 -79 -122 -130 -143 -87 -34 -190 -15 -256 48 -125 119 -99 317
50 391 61 30 138 34 195 11z m593 -198 c119 -60 156 -229 76 -344 -99 -144
-305 -136 -393 15 -24 39 -28 58 -28 117 1 103 49 182 135 219 54 24 156 20
210 -7z m-889 -343 c90 -26 167 -82 210 -151 l20 -32 45 16 c67 23 174 14 240
-20 152 -77 197 -256 109 -433 -65 -133 -244 -298 -416 -384 l-78 -40 -89 46
c-175 89 -375 261 -469 402 -132 199 -104 420 69 544 89 63 244 86 359 52z
m1125 -205 c166 -85 160 -336 -9 -418 -57 -28 -153 -29 -205 -2 -44 23 -93 73
-116 118 -22 44 -21 147 3 199 21 46 82 102 132 121 51 19 139 11 195 -18z
m654 -329 c0 -11 -4 -20 -9 -20 -5 0 -7 9 -4 20 3 11 7 20 9 20 2 0 4 -9 4
-20z m-8 -72 c-6 -6 -7 0 -4 19 5 21 7 23 10 9 2 -10 0 -22 -6 -28z"/>
<path d="M965 1723 c-66 -24 -108 -55 -137 -101 -19 -31 -23 -50 -23 -122 0
-75 3 -91 29 -137 66 -119 221 -266 369 -351 l75 -43 34 17 c129 66 283 208
324 299 47 102 31 207 -40 258 -24 17 -45 22 -94 22 -62 0 -64 -1 -104 -43
-22 -24 -41 -42 -42 -40 -1 2 -13 27 -26 57 -30 65 -108 147 -165 172 -64 28
-141 33 -200 12z"/>
</g>
</svg>
