<?xml version="1.0" encoding="UTF-8" standalone="no"?>
<!-- Created with Inkscape (http://www.inkscape.org/) -->

<svg
   width="94.807129mm"
   height="91.958092mm"
   viewBox="0 0 94.807129 91.958092"
   version="1.1"
   id="svg1"
   xml:space="preserve"
   inkscape:version="1.4.2 (f4327f4, 2025-05-13)"
   sodipodi:docname="logo_squere.svg"
   xmlns:inkscape="http://www.inkscape.org/namespaces/inkscape"
   xmlns:sodipodi="http://sodipodi.sourceforge.net/DTD/sodipodi-0.dtd"
   xmlns="http://www.w3.org/2000/svg"
   xmlns:svg="http://www.w3.org/2000/svg"><sodipodi:namedview
     id="namedview1"
     pagecolor="#ffffff"
     bordercolor="#000000"
     borderopacity="0.25"
     inkscape:showpageshadow="2"
     inkscape:pageopacity="0.0"
     inkscape:pagecheckerboard="false"
     inkscape:deskcolor="#d1d1d1"
     inkscape:document-units="mm"
     inkscape:zoom="0.71891835"
     inkscape:cx="182.91368"
     inkscape:cy="267.76337"
     inkscape:window-width="1920"
     inkscape:window-height="1009"
     inkscape:window-x="1912"
     inkscape:window-y="-8"
     inkscape:window-maximized="1"
     inkscape:current-layer="g2"
     showborder="true"
     labelstyle="default" /><defs
     id="defs1" /><g
     inkscape:label="Capa 1"
     inkscape:groupmode="layer"
     id="layer1"
     transform="translate(-56.624623,-77.589378)"><g
       transform="matrix(0.03261872,0,0,-0.03527778,55.377223,179.42525)"
       fill="#000000"
       stroke="none"
       id="g2"><path
         d="M 487,2875 C 278,2833 108,2675 56,2473 33,2385 32,785 55,700 80,604 130,520 205,445 285,365 344,330 450,301 c 73,-21 94,-21 1032,-21 836,0 965,2 1025,16 109,25 212,84 288,165 22,23 33,38 25,33 -8,-4 0,7 18,25 29,30 36,43 33,64 0,4 3,7 9,7 5,0 7,7 4,15 -4,9 1,18 10,21 9,4 16,14 15,23 -3,29 1,42 9,37 5,-3 8,8 7,24 -1,16 2,27 7,24 5,-4 7,11 4,33 -4,21 -3,30 1,21 11,-23 10,1605 -1,1662 -4,25 -24,79 -43,120 -47,97 -150,203 -243,249 -142,69 -74,65 -1135,67 -778,2 -973,0 -1028,-11 z m 960,-460 c 123,-52 180,-177 141,-307 -16,-53 -79,-122 -130,-143 -87,-34 -190,-15 -256,48 -125,119 -99,317 50,391 61,30 138,34 195,11 z m 593,-198 c 119,-60 156,-229 76,-344 -99,-144 -305,-136 -393,15 -24,39 -28,58 -28,117 1,103 49,182 135,219 54,24 156,20 210,-7 z m -889,-343 c 90,-26 167,-82 210,-151 l 20,-32 45,16 c 67,23 174,14 240,-20 152,-77 197,-256 109,-433 -65,-133 -244,-298 -416,-384 l -78,-40 -89,46 c -175,89 -375,261 -469,402 -132,199 -104,420 69,544 89,63 244,86 359,52 z m 1125,-205 c 166,-85 160,-336 -9,-418 -57,-28 -153,-29 -205,-2 -44,23 -93,73 -116,118 -22,44 -21,147 3,199 21,46 82,102 132,121 51,19 139,11 195,-18 z m 654,-329 c 0,-11 -4,-20 -9,-20 -5,0 -7,9 -4,20 3,11 7,20 9,20 2,0 4,-9 4,-20 z m -8,-72 c -6,-6 -7,0 -4,19 5,21 7,23 10,9 2,-10 0,-22 -6,-28 z"
         id="path1"
         style="fill:#774bcd;fill-opacity:1"
         sodipodi:nodetypes="cccscscccccsccccscccccccccccccccccccccccccccccccccccccccssssssccs" /><path
         d="m 965,1723 c -66,-24 -108,-55 -137,-101 -19,-31 -23,-50 -23,-122 0,-75 3,-91 29,-137 66,-119 221,-266 369,-351 l 75,-43 34,17 c 129,66 283,208 324,299 47,102 31,207 -40,258 -24,17 -45,22 -94,22 -62,0 -64,-1 -104,-43 -22,-24 -41,-42 -42,-40 -1,2 -13,27 -26,57 -30,65 -108,147 -165,172 -64,28 -141,33 -200,12 z"
         id="path2"
         style="fill:#774bcd;fill-opacity:1"
         sodipodi:nodetypes="ccsccccccscsccc" /></g></g></svg>
